<svg width="24" height="24" viewBox="0 0 24 24" fill="none" xmlns="http://www.w3.org/2000/svg">
<g id="default">
<g clip-path="url(#clip0_1654_530)">
<path id="Caminho 6304" d="M16.0007 12C16.0007 11.9015 15.9813 11.8039 15.9436 11.7129C15.906 11.6218 15.8507 11.5391 15.781 11.4694C15.7114 11.3998 15.6286 11.3445 15.5376 11.3068C15.4466 11.2691 15.349 11.2497 15.2505 11.2498H12.7501L12.7501 8.72354C12.7433 8.52933 12.6613 8.34536 12.5215 8.2104C12.3817 8.07543 12.1949 8 12.0006 8C11.8063 8 11.6195 8.07543 11.4797 8.2104C11.3399 8.34536 11.2579 8.52933 11.2511 8.72354L11.2511 11.2498H8.75073C8.65221 11.2498 8.55465 11.2692 8.46362 11.3069C8.3726 11.3446 8.28989 11.3998 8.22023 11.4695C8.15056 11.5392 8.0953 11.6219 8.0576 11.7129C8.01989 11.8039 8.00049 11.9015 8.00049 12C8.00049 12.0985 8.01989 12.1961 8.0576 12.2871C8.0953 12.3781 8.15056 12.4608 8.22023 12.5305C8.28989 12.6002 8.3726 12.6554 8.46362 12.6931C8.55465 12.7308 8.65221 12.7502 8.75073 12.7502H11.2511L11.2511 15.2498C11.2511 15.3483 11.2705 15.4458 11.3082 15.5369C11.3459 15.6279 11.4011 15.7106 11.4708 15.7803C11.5405 15.8499 11.6232 15.9052 11.7142 15.9429C11.8052 15.9806 11.9028 16 12.0013 16C12.0998 16 12.1974 15.9806 12.2884 15.9429C12.3794 15.9052 12.4621 15.8499 12.5318 15.7803C12.6015 15.7106 12.6567 15.6279 12.6944 15.5369C12.7321 15.4458 12.7515 15.3483 12.7515 15.2498L12.7515 12.7502H15.2519C15.4506 12.7499 15.6411 12.6707 15.7815 12.5301C15.9219 12.3894 16.0008 12.1988 16.0007 12Z" fill="#00A296"/>
</g>
<rect x="0.5" y="0.5" width="23" height="23" rx="11.5" stroke="#00A296"/>
</g>
<defs>
<clipPath id="clip0_1654_530">
<rect width="24" height="24" rx="12" fill="white"/>
</clipPath>
</defs>
</svg>
