<svg xmlns="http://www.w3.org/2000/svg" width="73" height="40" viewBox="0 0 73 40" fill="none">
  <g clip-path="url(#clip0_1201_1436)">
    <path
      d="M39.5966 14.298C39.3937 13.2853 39.1427 12.2683 38.8546 11.2815C38.7967 11.0919 38.6673 10.9315 38.4931 10.8333C38.319 10.735 38.1132 10.7065 37.9184 10.7536C37.4823 10.8588 37.0237 10.8255 36.608 10.6584C36.1922 10.4913 35.8405 10.1989 35.6029 9.82281C35.5466 9.73404 35.4731 9.65713 35.3865 9.59649C35.3 9.53586 35.2022 9.4927 35.0988 9.46949C34.9998 9.44783 34.8974 9.44601 34.7977 9.46415C34.698 9.48229 34.603 9.52001 34.5183 9.57508C34.0277 9.89504 33.4692 10.0993 32.8858 10.172C32.3025 10.2447 31.7101 10.1839 31.1544 9.99437C30.5986 9.80482 30.0945 9.49158 29.6811 9.07888C29.2676 8.66618 28.9559 8.1651 28.77 7.61441C28.7067 7.42536 28.5721 7.26768 28.394 7.17417C28.216 7.08066 28.0083 7.05853 27.8141 7.11237C27.4816 7.19594 27.1403 7.24078 26.7971 7.24599C25.957 7.24599 23.7047 6.34535 23.1526 4.60012C23.0603 4.29839 23.0154 3.98447 23.0195 3.66929C23.033 3.35338 23.1016 3.04213 23.2224 2.7493C23.2973 2.56104 23.2934 2.35111 23.2116 2.16569C23.1297 1.98027 22.9766 1.83453 22.786 1.76053C22.536 1.66091 22.3079 1.5146 22.1141 1.32964C21.8854 1.10553 21.7115 0.832877 21.6056 0.532427C21.5545 0.387893 21.4606 0.26188 21.3359 0.170776C21.2113 0.0796715 21.0619 0.0276918 20.9069 0.0215962C20.7323 0.0130001 20.5141 0.00223788 20.2959 0.00223788C14.2093 -0.0753309 8.91949 1.86592 5.39037 5.46414C2.80207 8.10134 1.72618 11.0144 1.32024 12.111C0.640988 13.9945 0.228257 15.9615 0.0937244 17.9564C-0.0979985 20.1743 0.00470381 22.4074 0.399222 24.599C0.814876 26.8118 1.51144 28.9639 2.47244 31.0047C2.53791 31.1447 4.11572 34.4628 6.27189 35.9365C6.64015 36.1846 7.03822 36.3865 7.45693 36.5376C7.77168 36.6443 8.09735 36.7166 8.42807 36.7531C9.89461 36.9297 10.8876 36.3071 11.7649 35.7577C12.3694 35.3786 12.9433 35.0208 13.6396 34.8958C14.8071 34.7063 15.5818 35.3267 16.4767 36.0334C17.3715 36.7401 18.4146 37.5718 19.9684 37.4641C21.3149 37.3693 22.0133 36.6475 22.6265 36.0097C23.1721 35.4473 23.685 34.9151 24.6234 34.7794C26.498 34.5057 28.137 36.0722 29.7257 37.5804C31.0352 38.8191 32.2659 40 33.5513 40C33.7739 40.0004 33.9951 39.9647 34.206 39.8944C35.2339 39.556 35.8537 38.4336 37.0845 36.2014L37.1413 36.0999C37.7086 35.0681 38.1769 33.986 38.5399 32.868C40.0872 28.2227 40.2988 23.6549 40.3163 21.9076C40.3422 19.3534 40.101 16.8033 39.5966 14.298ZM31.0462 34.2603C29.9899 32.9827 28.6741 31.3904 26.4022 31.1275C26.1848 31.1027 25.9662 31.0905 25.7474 31.0909C25.4614 31.0914 25.1756 31.1102 24.892 31.1469C23.1986 31.3624 22.2491 32.1704 21.4875 32.8168C20.8611 33.3489 20.3679 33.7669 19.6281 33.8165C18.7704 33.8725 18.2248 33.3856 17.5352 32.7758C16.7998 32.1294 15.9639 31.3796 14.5694 31.2418C13.3036 31.1168 11.9854 31.5369 10.6673 32.4764C10.221 32.757 9.71563 32.9331 9.18982 32.9913C8.86583 33.0003 8.54323 32.9461 8.24049 32.8319C8.17702 32.8051 8.11509 32.7748 8.05497 32.7414C7.78597 32.5799 7.54867 32.3719 7.35444 32.1273C6.73686 31.3991 1.40093 24.7435 3.66406 15.4852L3.69895 15.3408C4.1223 13.6021 5.00843 9.98005 8.15095 7.0478C10.5833 4.77247 13.7122 3.35905 17.0463 3.02945L17.1555 3.01869C18.0284 2.93679 19.1196 2.83336 19.556 3.51213C19.7239 3.77926 19.8277 4.08075 19.8594 4.39354C19.8791 4.49507 19.8987 4.60899 19.9271 4.74477C20.0886 5.5721 20.6254 7.61041 22.1094 8.65969C23.0129 9.3061 24.2241 9.53664 25.7561 9.83608C25.9351 9.87053 26.0071 9.8813 26.0509 9.8878L26.1317 9.90506C26.9676 10.1205 27.3146 10.6506 27.7183 11.2668C28.0542 11.7817 28.4341 12.3656 29.1412 12.7879C30.324 13.4946 32.1965 13.6497 33.5845 13.1391L33.7198 13.0896C33.9712 12.9705 34.2487 12.915 34.5273 12.928C35.2951 12.9926 35.8804 14.0958 36.0746 14.4577C36.4257 15.142 36.6924 15.8653 36.869 16.6123C37.1903 17.9176 37.3768 19.2516 37.4255 20.5941V20.7578C37.4255 20.9237 37.4429 21.0788 37.4364 21.2275C37.3821 23.2721 37.1874 25.3107 36.8536 27.3293C36.168 31.1752 34.7716 35.7106 33.0934 35.8356C32.4146 35.9084 31.7794 35.1394 31.0462 34.2603Z"
      fill="white" />
    <path
      d="M9.13744 14.9551C7.63813 14.9551 6.46187 16.989 6.46187 19.5832C6.46187 22.1773 7.63813 24.2112 9.13744 24.2112C10.6368 24.2112 11.813 22.1773 11.813 19.5832C11.813 16.989 10.6389 14.9551 9.13744 14.9551Z"
      fill="white" />
    <path
      d="M25.1538 14.9551C23.6545 14.9551 22.4782 16.989 22.4782 19.5832C22.4782 22.1773 23.6545 24.2112 25.1538 24.2112C26.6531 24.2112 27.8294 22.1773 27.8294 19.5832C27.8294 16.989 26.6552 14.9551 25.1538 14.9551Z"
      fill="white" />
    <path fill-rule="evenodd" clip-rule="evenodd"
      d="M68.5027 4.70647C68.7464 4.58966 69.0265 4.57057 69.2841 4.65319C69.5418 4.73581 69.757 4.91372 69.8847 5.14962C70.1095 5.64388 70.2299 6.1782 70.2386 6.71994C70.2963 7.81681 70.2804 9.48156 69.39 9.81566C68.0188 10.3296 67.6789 8.89512 67.62 7.81999C67.5733 7.17743 67.6107 6.53161 67.7312 5.8985C67.8737 5.25805 68.0117 4.9672 68.5027 4.70647ZM70.1819 2.83758C70.0086 2.8013 69.7903 2.4343 69.3935 2.26184C69.017 2.10385 68.6111 2.02568 68.2021 2.03238C66.5056 2.02432 65.5063 3.22068 65.0946 4.66166C64.4068 7.07049 64.3834 12.1686 67.9214 12.4751C69.5051 12.6117 69.6305 11.9822 70.0045 11.8823C69.968 12.6239 69.9848 13.3672 70.0549 14.1065C70.2537 14.7383 71.2067 14.56 71.8086 14.5608C72.768 14.5608 72.9466 14.4515 72.9481 13.4792V6.81599C72.9481 1.96158 73.402 2.17222 71.6243 2.17357C71.1636 2.11359 70.6952 2.15959 70.2555 2.308L70.1819 2.83758Z"
      fill="white" />
    <path fill-rule="evenodd" clip-rule="evenodd"
      d="M52.5992 8.43573C54.5294 7.89356 54.9846 10.2845 53.5613 10.7032C51.6683 11.2595 50.9258 8.90582 52.5992 8.43573ZM51.4679 5.61916C51.7307 5.26042 51.645 5.00937 52.0987 4.78932C52.491 4.62952 52.9246 4.59704 53.3368 4.69659C54.2295 4.94304 54.1605 5.8365 54.1605 6.82195C53.5789 6.45141 52.9012 6.25459 52.209 6.25514C50.1263 6.27978 48.4911 7.7454 48.728 9.99381C48.9758 12.3421 51.1601 13.3199 53.128 12.7432C54.2368 12.4179 54.1265 12.0684 54.613 11.822C54.9992 12.2767 54.9153 12.3856 55.5334 12.6616C55.8615 12.8081 57.9814 13.3337 58.0658 12.0231C58.1129 11.4502 58.0953 10.8738 58.0132 10.3048C57.5248 10.2994 57.1844 10.38 57.1023 9.9203C56.7995 8.22293 57.9577 3.84618 55.5514 2.60203C54.1995 1.98008 52.6632 1.87004 51.2345 2.29284C50.1353 2.64366 48.8745 3.69618 49.068 5.17304C49.4108 5.43607 50.9501 5.6595 51.4679 5.61916Z"
      fill="white" />
    <path fill-rule="evenodd" clip-rule="evenodd"
      d="M52.7521 29.5142C52.3604 29.1258 51.387 29.0155 50.6835 29.1947C49.9923 29.3713 50.1884 30.4171 50.1884 31.1595V35.9987C50.1884 39.0272 49.825 39.7415 51.2926 39.7423C52.1153 39.7423 53.0258 39.939 53.1252 39.0984C53.2981 37.6346 52.8016 33.2046 53.3912 32.1354C53.4802 32.0016 53.5968 31.8878 53.7334 31.8015C53.87 31.7151 54.0236 31.6582 54.184 31.6345C54.3444 31.6107 54.508 31.6206 54.6643 31.6636C54.8206 31.7065 54.9659 31.7815 55.0908 31.8836C55.5823 32.3317 55.5587 33.0294 55.5582 33.8103C55.5564 35.4234 55.5564 37.0364 55.5582 38.6495C55.5582 39.7557 55.8727 39.7454 56.9343 39.7441C59.026 39.7405 58.5032 39.7889 58.5032 34.0845C58.5032 33.2982 58.392 32.5163 58.8871 31.9961C58.9887 31.878 59.1149 31.7831 59.2572 31.7177C59.3994 31.6522 59.5543 31.6179 59.7112 31.6171C59.868 31.6162 60.0233 31.6489 60.1662 31.7127C60.3092 31.7766 60.4365 31.8702 60.5394 31.9871C61.1525 32.6781 60.9138 35.3705 60.9138 36.458C60.9138 39.7957 60.602 39.7419 62.4814 39.7441C63.5479 39.7441 63.8601 39.766 63.8594 38.6495C63.8594 37.025 63.9706 32.6167 63.7387 31.5646C63.6431 30.9618 63.3631 30.4023 62.9361 29.9613C62.5092 29.5203 61.9557 29.2188 61.3501 29.0973C60.8505 28.9768 60.3274 28.9903 59.8349 29.1363C59.3423 29.2824 58.8982 29.5557 58.5485 29.928C58.4295 30.0291 58.3363 30.1563 58.2762 30.2995L58.0226 30.6306C57.2906 28.9571 54.8852 28.6203 53.7052 29.5221C52.9551 30.094 53.107 30.3575 52.818 30.5802L52.7521 29.5142Z"
      fill="white" />
    <path fill-rule="evenodd" clip-rule="evenodd"
      d="M67.8224 33.1541C67.8588 32.253 68.1891 31.2874 69.1326 31.3515C70.0272 31.4124 70.2994 32.2893 70.3263 33.1541H67.8224ZM67.7417 34.9643H70.4316C71.1392 34.9643 72.4481 35.1569 72.8901 34.7734C72.9709 33.4416 72.7744 32.1076 72.3127 30.8537C71.8439 29.8011 71.0143 29.1904 69.6006 29.0708C66.4436 28.8047 65.0884 30.4531 64.8211 33.2643C64.542 36.2009 65.0313 38.9036 67.3935 39.634C68.6648 40.0161 70.0352 39.9113 71.2317 39.3406C71.7493 39.0536 72.1736 38.627 72.4548 38.1108C72.7361 37.5947 72.8628 37.0101 72.8201 36.4255C72.3951 36.0352 71.0288 35.8816 70.3962 35.9707C70.2668 36.5129 70.3354 36.7324 69.9115 37.0385C69.7297 37.157 69.5228 37.2326 69.3067 37.2595C69.0905 37.2864 68.8711 37.2638 68.6652 37.1935C67.9105 36.9218 67.7825 35.9433 67.7417 34.9643Z"
      fill="white" />
    <path fill-rule="evenodd" clip-rule="evenodd"
      d="M69.881 22.6377C69.5579 25.0788 67.9912 24.1894 67.7694 23.8704C67.1735 23.0123 67.076 19.5062 68.0272 18.8277C68.1379 18.7455 68.2644 18.6865 68.3991 18.6545C68.5337 18.6225 68.6736 18.6181 68.8101 18.6416C68.9465 18.6652 69.0766 18.7161 69.1923 18.7912C69.308 18.8664 69.4068 18.9642 69.4827 19.0786C70.0228 19.8529 70.0149 21.6273 69.881 22.6377ZM64.4263 22.8205C64.5806 24.3247 65.0617 25.4806 65.9521 26.1196C67.4857 27.2196 71.4481 27.4925 72.5056 24.4421C72.9055 23.0518 73.0202 21.5967 72.8428 20.1621C72.4902 17.0417 70.5904 15.4887 67.3732 16.1855C64.4027 16.829 64.169 20.314 64.4263 22.8205Z"
      fill="white" />
    <path fill-rule="evenodd" clip-rule="evenodd"
      d="M58.2014 20.1863C57.3872 20.2383 57.4753 20.6657 57.4753 21.4513C57.4753 22.4101 57.4103 22.4155 58.1751 22.7292C58.5385 26.0481 57.3496 26.7457 59.6755 26.7452C61.4868 26.7452 61.1446 26.6771 61.1446 22.6844C63.1602 22.6844 63.427 22.9213 63.4233 21.4513C63.4192 19.9583 63.2295 20.1863 61.1446 20.1863C61.1515 17.6225 62.6876 19.1728 63.5994 18.5706C63.9171 18.1081 63.7732 16.804 63.6021 16.2993C62.4794 15.896 60.4361 15.995 59.5085 16.634C58.4088 17.3922 58.2019 18.4833 58.2014 20.1863Z"
      fill="white" />
    <path fill-rule="evenodd" clip-rule="evenodd"
      d="M62.7081 6.90737C63.2527 6.90737 63.7877 6.9423 63.9627 6.46869C64.0406 5.96615 64.0467 5.45531 63.9809 4.95109C63.7993 4.18353 62.5399 4.41028 61.2678 4.41028C60.425 4.41028 58.6427 4.08768 58.479 4.98737C58.4154 5.51817 58.4404 6.05566 58.5529 6.57848C58.7485 6.9846 59.2419 6.8763 59.7638 6.93153L59.7593 10.2553C59.2387 10.2472 58.6977 10.2006 58.5189 10.6749C58.4349 11.2064 58.4299 11.7471 58.504 12.2799C58.6855 12.974 60.1487 12.7491 61.3605 12.7491C62.2319 12.7491 63.902 13.0658 64.0055 12.0953C64.2084 10.1879 63.6855 10.2516 62.7079 10.2516L62.7081 6.90737Z"
      fill="white" />
    <path fill-rule="evenodd" clip-rule="evenodd"
      d="M60.5315 0.125377C58.039 1.00449 59.4255 4.27856 61.7114 3.60508C61.9523 3.53833 62.1772 3.42461 62.3729 3.27063C62.5685 3.11664 62.731 2.92552 62.8506 2.70855C62.9701 2.49157 63.0445 2.25313 63.0692 2.00732C63.0939 1.7615 63.0685 1.51329 62.9944 1.27733C62.9099 1.04167 62.7789 0.824821 62.6092 0.639253C62.4395 0.453686 62.2343 0.303054 62.0054 0.196012C61.7766 0.0889692 61.5286 0.027625 61.2756 0.0155033C61.0227 0.00338147 60.7698 0.040721 60.5315 0.125377Z"
      fill="white" />
  </g>
  <defs>
    <clipPath id="clip0_1201_1436">
      <rect width="73" height="40" fill="white" />
    </clipPath>
  </defs>
</svg>