<svg xmlns="http://www.w3.org/2000/svg" width="24" height="25" viewBox="0 0 24 25" fill="none">
  <g clip-path="url(#clip0_1201_1454)">
    <path fill-rule="evenodd" clip-rule="evenodd"
      d="M14.9286 12.553C16.1836 11.6446 17 10.1677 17 8.5C17 5.73858 14.7614 3.5 12 3.5C9.23858 3.5 7 5.73858 7 8.5C7 10.1677 7.81643 11.6446 9.0714 12.553C6.1018 13.7218 4 16.6154 4 20V20.1429C4 20.8924 4.60761 21.5 5.35714 21.5H18.6429C19.3924 21.5 20 20.8924 20 20.1429V20C20 16.6154 17.8982 13.7218 14.9286 12.553ZM15.5 8.5C15.5 10.433 13.933 12 12 12C10.067 12 8.5 10.433 8.5 8.5C8.5 6.567 10.067 5 12 5C13.933 5 15.5 6.567 15.5 8.5ZM12 13.5C8.41015 13.5 5.5 16.4101 5.5 20H18.5C18.5 16.4101 15.5899 13.5 12 13.5Z"
      fill="white" />
  </g>
  <defs>
    <clipPath id="clip0_1201_1454">
      <rect width="24" height="24" fill="white" transform="translate(0 0.5)" />
    </clipPath>
  </defs>
</svg>