<svg width="24" height="24" viewBox="0 0 24 24" fill="none" xmlns="http://www.w3.org/2000/svg">
<g id="default" clip-path="url(#clip0_1610_682)">
<g id="Union">
<path d="M10.9567 8.28907C11.1083 8.23479 11.3518 8.17129 11.3518 8.17129V7.74859L11.3518 7.74629C11.3474 7.5533 11.4168 7.36531 11.5468 7.21892C11.7241 7.05322 11.9005 7.01211 12.1069 7.00017C12.2063 6.99803 12.3051 7.01611 12.397 7.05322C12.4893 7.09054 12.5726 7.14639 12.6412 7.21672C12.7105 7.28731 12.7646 7.37043 12.8007 7.46124C12.8367 7.55205 12.854 7.64883 12.8515 7.74605V8.17129L12.9341 8.18737C13.1766 8.23463 13.4134 8.30657 13.6406 8.40192L13.6428 8.40281C13.9837 8.53647 14.3573 8.77323 14.4974 8.89723C14.6376 9.02124 14.7508 9.14429 14.8045 9.25325C14.8583 9.3622 14.8858 9.48153 14.8852 9.60222L14.8853 9.60394C14.8874 9.77971 14.8284 9.95126 14.7176 10.0907L14.7157 10.0932C14.6587 10.1696 14.584 10.2321 14.4974 10.2754C14.4116 10.3184 14.3167 10.3413 14.22 10.3422C14.0327 10.3325 13.8523 10.2707 13.7002 10.1643L13.6861 10.1551L13.676 10.1477C13.4442 9.9677 13.1893 9.81806 12.9178 9.7028L12.9133 9.70112C12.6551 9.60569 12.3805 9.56008 12.1047 9.56677C12.008 9.56087 11.9115 9.56445 11.8165 9.57714C11.5924 9.60709 11.377 9.6878 11.1883 9.81464L11.1848 9.81718C11.0869 9.88918 11.0084 9.98392 10.9567 10.0931C10.906 10.2003 10.8827 10.318 10.8888 10.4361C10.8848 10.5039 10.895 10.5718 10.9187 10.6356C10.9433 10.7016 10.9818 10.7617 11.0316 10.8118L11.0337 10.8138C11.1657 10.9392 11.3231 11.0358 11.4957 11.0974L11.497 11.0979C11.684 11.1616 11.9365 11.2325 12.2568 11.3096C12.3045 11.3211 12.3538 11.3328 12.4045 11.3446C12.8289 11.4407 13.2452 11.5683 13.6497 11.7261C14.0007 11.8634 14.3111 12.0835 14.5533 12.3663C14.833 12.7055 14.976 13.1323 14.9563 13.5666L14.9564 13.5728C14.961 13.8616 14.9031 14.1481 14.7865 14.4138C14.6699 14.6794 14.4965 14.9189 14.2788 15.1153C13.9066 15.4571 13.4445 15.6918 12.9435 15.793L12.8617 15.8095L12.8617 16.2515L12.8617 16.254C12.8642 16.3513 12.8469 16.448 12.8108 16.5388C12.7748 16.6296 12.7204 16.713 12.6512 16.7836C12.5826 16.8539 12.4995 16.9096 12.4072 16.947C12.3149 16.9843 12.2155 17.0022 12.1155 16.9998L12.1111 16.9999C12.0107 17.0017 11.9109 16.9839 11.8179 16.9475C11.7248 16.9111 11.6403 16.8568 11.5693 16.7881L11.5662 16.785L11.5636 16.7819L11.561 16.7792C11.4283 16.6348 11.3574 16.4469 11.362 16.2539V15.8461L11.2753 15.8329C10.9777 15.7878 10.6846 15.7175 10.3995 15.623L10.3839 15.6178H10.3756C10.0023 15.4871 9.65612 15.292 9.35339 15.0422L9.34991 15.0395C9.25055 14.9644 9.1709 14.8678 9.11717 14.7574C9.06345 14.6471 9.03721 14.5262 9.04024 14.4043L9.04015 14.3997C9.03653 14.2267 9.09124 14.057 9.19615 13.9169C9.25316 13.8405 9.3279 13.778 9.4145 13.7347C9.5003 13.6918 9.59525 13.6688 9.69186 13.6678C9.70095 13.6683 9.70957 13.6687 9.71779 13.6691C9.87889 13.677 9.88492 13.6773 10.2447 13.8641C10.6227 14.0604 11.3742 14.4234 12.0074 14.4387C12.3446 14.4635 12.6815 14.3833 12.9692 14.2091L12.9746 14.2054C13.0711 14.1381 13.1484 14.0476 13.1989 13.9422C13.2481 13.8395 13.2627 13.734 13.2627 13.6129C13.2627 13.4815 13.2194 13.3863 13.1304 13.3035C13.0415 13.2208 12.86 13.1024 12.699 13.0498C12.4149 12.9521 12.1254 12.8699 11.832 12.8034C11.3967 12.7008 10.9688 12.5703 10.551 12.4128C10.1842 12.2675 9.85964 12.0369 9.6054 11.7414C9.32235 11.3857 9.17771 10.9442 9.19621 10.4948L9.19606 10.4883C9.18973 10.2067 9.24092 9.92671 9.34671 9.66454C9.45245 9.40252 9.61063 9.16352 9.81216 8.96154C10.0568 8.72157 10.3071 8.57093 10.6704 8.4049C10.7801 8.35477 10.8432 8.32973 10.9567 8.28907Z" fill="#02A117"/>
<path fill-rule="evenodd" clip-rule="evenodd" d="M21 12C21 16.9706 16.9706 21 12 21C7.02944 21 3 16.9706 3 12C3 7.02944 7.02944 3 12 3C16.9706 3 21 7.02944 21 12ZM19.5 12C19.5 16.1421 16.1421 19.5 12 19.5C7.85786 19.5 4.5 16.1421 4.5 12C4.5 7.85786 7.85786 4.5 12 4.5C16.1421 4.5 19.5 7.85786 19.5 12Z" fill="#02A117"/>
</g>
</g>
<defs>
<clipPath id="clip0_1610_682">
<rect width="24" height="24" fill="white"/>
</clipPath>
</defs>
</svg>
