<svg width="24" height="24" viewBox="0 0 24 24" fill="none" xmlns="http://www.w3.org/2000/svg">
<g id="radio" clip-path="url(#clip0_1610_374)">
<path id="Interse&#195;&#167;&#195;&#163;o 3" d="M12.0002 19.9995C10.4179 19.9995 8.87145 19.5309 7.55586 18.6518C6.24026 17.7728 5.21507 16.5218 4.60957 15.06C4.00407 13.5982 3.84483 11.9908 4.15351 10.4389C4.46219 8.88707 5.22415 7.46204 6.34297 6.34322C7.46179 5.2244 8.8878 4.46245 10.4396 4.15376C11.9915 3.84508 13.5999 4.00334 15.0617 4.60884C16.5235 5.21434 17.7725 6.23856 18.6516 7.55416C19.5306 8.86975 20.0002 10.4172 20.0002 11.9995C20.0002 14.1212 19.1577 16.1554 17.6574 17.6557C16.1571 19.156 14.1219 19.9995 12.0002 19.9995Z" fill="white"/>
<path id="Interse&#195;&#167;&#195;&#163;o 2" d="M12.0002 19.9995C10.4179 19.9995 8.87145 19.5309 7.55586 18.6518C6.24026 17.7728 5.21507 16.5218 4.60957 15.06C4.00407 13.5982 3.84483 11.9908 4.15351 10.4389C4.46219 8.88707 5.22415 7.46204 6.34297 6.34322C7.46179 5.2244 8.8878 4.46245 10.4396 4.15376C11.9915 3.84508 13.5999 4.00334 15.0617 4.60884C16.5235 5.21434 17.7725 6.23856 18.6516 7.55416C19.5306 8.86975 20.0002 10.4172 20.0002 11.9995C20.0002 14.1212 19.1577 16.1554 17.6574 17.6557C16.1571 19.156 14.1219 19.9995 12.0002 19.9995ZM8.00019 11.4995C7.87123 11.6465 7.8 11.8351 7.8 12.0307C7.8 12.2263 7.87123 12.4149 8.00019 12.562L10.5441 15.1616L10.5617 15.1811L10.5793 15.1928L10.6379 15.2514C10.6916 15.3045 10.7553 15.3463 10.8254 15.3745C10.8954 15.4026 10.9706 15.4166 11.0461 15.4155C11.1402 15.4269 11.2354 15.4163 11.3254 15.3862C11.4153 15.3561 11.4983 15.3074 11.5666 15.2417L16.5666 10.0639C16.7047 9.92253 16.7807 9.73226 16.7795 9.53462C16.7783 9.33699 16.6995 9.14703 16.5598 9.00728C16.42 8.86753 16.231 8.7897 16.0334 8.78853C15.8358 8.78736 15.6455 8.86333 15.5041 9.00142L11.093 13.5893L9.68672 12.1245L9.06367 11.4995C8.91723 11.3659 8.72468 11.295 8.52656 11.3002C8.33283 11.2963 8.14476 11.3672 8.00312 11.4995H8.00019Z" fill="#00A296"/>
</g>
<defs>
<clipPath id="clip0_1610_374">
<rect width="24" height="24" fill="white"/>
</clipPath>
</defs>
</svg>
