<svg xmlns="http://www.w3.org/2000/svg" width="16" height="17" viewBox="0 0 16 17" fill="none">
  <g clip-path="url(#clip0_1201_1443)">
    <path fill-rule="evenodd" clip-rule="evenodd"
      d="M5.22012 3.71407C5.36301 3.57672 5.55352 3.5 5.75172 3.5C5.94993 3.5 6.14044 3.57672 6.28332 3.71407L10.7799 7.98298C10.8495 8.04991 10.9049 8.1302 10.9427 8.21904C10.9805 8.30789 11 8.40345 11 8.50001C11 8.59657 10.9805 8.69214 10.9427 8.78098C10.9049 8.86982 10.8495 8.95012 10.7799 9.01704L6.28339 13.286C6.1405 13.4234 5.95 13.5001 5.75179 13.5001C5.55359 13.5001 5.36308 13.4234 5.22019 13.286C5.15059 13.2191 5.09521 13.1388 5.05739 13.0499C5.01956 12.9611 5.00007 12.8655 5.00007 12.769C5.00007 12.6724 5.01956 12.5769 5.05739 12.488C5.09521 12.3992 5.15059 12.3189 5.22019 12.2519L9.18461 8.50001L5.22012 4.74813C5.15052 4.68121 5.09515 4.60092 5.05732 4.51207C5.0195 4.42323 5 4.32766 5 4.2311C5 4.13454 5.0195 4.03898 5.05732 3.95013C5.09515 3.86129 5.15052 3.781 5.22012 3.71407Z"
      fill="white" />
  </g>
  <defs>
    <clipPath id="clip0_1201_1443">
      <rect width="16" height="16" fill="white" transform="translate(0 0.5)" />
    </clipPath>
  </defs>
</svg>